<?xml version="1.0" encoding="utf-8" ?><svg xmlns="http://www.w3.org/2000/svg" xmlns:xlink="http://www.w3.org/1999/xlink" width="600" height="600" viewBox="0 0 600 600"><path fill="#414141" transform="matrix(0.992846 0.00715423 -0.00715423 0.992846 4.29248 0.000244141)" d="M239.808 364.008L243.628 363.938C250.571 363.874 257.841 364.176 264.839 364.205L313.495 364.218L342.154 364.187C348.223 364.154 354.277 364.011 360.347 364.193C363.877 364.207 366.365 366.769 368.684 369.156C372.184 372.758 375.692 376.397 379.25 379.965L417.81 418.56C414.283 421.729 410.265 425.98 406.865 429.397L389.437 446.747L372.844 463.372C370.217 466.006 365.527 470.939 362.69 473.113L279.713 473.267L254.984 473.156C249.866 473.151 243.679 473.035 238.686 473.632C238.18 445.519 238.743 417.388 238.8 389.284L238.726 371.437C238.709 370.066 238.424 365.096 238.946 364.208L239.808 364.008Z"/><path fill="#6ECFDA" transform="matrix(0.992846 0.00715423 -0.00715423 0.992846 4.29248 0.000244141)" d="M239.218 125.633C279.406 126.3 319.772 125.207 359.967 125.914C364.424 125.992 367.871 130.42 370.862 133.247C372.767 135.049 374.674 137.01 376.546 138.855L401.27 163.639C405.967 168.424 413.162 176.062 418.002 180.149C417.156 181.276 415.834 182.565 414.83 183.589C406.828 191.752 398.626 199.67 390.745 207.955C385.819 212.876 369.117 230.193 363.529 234.219C362.031 235.299 343.29 234.636 339.53 234.632L278.686 234.621C265.55 234.625 251.669 234.399 238.628 234.994C238.501 230.115 238.666 224.414 238.677 219.464L239.035 171.701L239.017 141.673C239.014 137.377 238.796 129.633 239.218 125.633Z"/><path fill="#48A9D5" transform="matrix(0.992846 0.00715423 -0.00715423 0.992846 4.29248 0.000244141)" d="M239.881 245.017C249.401 244.503 262.495 244.941 272.378 244.954L325.577 245.042C338.231 245.104 350.246 245.389 362.936 245.05C362.589 280.911 362.451 318.165 363.05 353.953C357.959 353.286 348.691 353.553 343.189 353.553L308.057 353.562L264.629 353.649C256.985 353.686 249.17 353.989 241.536 353.664C239.305 353.57 238.672 353.333 236.965 351.933C231.702 347.618 226.816 342.397 222.119 337.479C217.296 332.431 212.292 327.548 207.472 322.534C199.877 314.635 191.349 307.573 184.219 299.29C186.43 296.403 190.302 292.721 192.947 290.073L206.15 276.866L224.351 258.674C227.585 255.442 236.031 246.188 239.881 245.017Z"/></svg>