<?xml version="1.0" encoding="utf-8" ?><svg xmlns="http://www.w3.org/2000/svg" xmlns:xlink="http://www.w3.org/1999/xlink" width="1698" height="609" viewBox="0 0 1698 609"><path fill="#484847" transform="scale(0.829102 0.8297)" d="M1162.76 88.4469C1166.99 88.516 1168.75 87.8794 1172.12 89.8417C1173.19 99.6707 1172.47 119.731 1172.39 130.172L1172.06 203.911C1182.16 192.574 1189.17 181.411 1204.13 175.542C1302.49 136.959 1347.08 256.804 1292.86 324.289C1273.28 344.821 1248.51 353.021 1220.54 348.052C1197.64 343.982 1183.5 331.675 1170.71 313.242C1170.71 320.207 1172.7 340.024 1166.82 344.995C1165.49 346.123 1160.11 345.641 1158.49 344.179C1161.31 277.762 1159.17 212.737 1160.42 146.336C1160.77 128.112 1160.16 109.64 1160.75 91.4839C1160.81 89.5152 1160.99 89.901 1162.76 88.4469ZM1242.97 339.41C1250.6 338.139 1256.97 336.941 1263.95 333.533C1327.36 302.545 1313.53 172.119 1232.36 178.363C1174.42 187.942 1166.76 237.851 1173.14 286.685C1175.24 302.794 1186.43 319.775 1199.94 328.909C1213.52 337.782 1226.59 340.649 1242.97 339.41Z"/><path fill="#484847" transform="scale(0.829102 0.8297)" d="M1031.98 168.399C1062.31 167.129 1083.96 177.068 1099.59 203.011C1100.21 194.536 1097.1 174.689 1105.29 170.775C1108.11 171.168 1108.96 172.267 1111.07 174.203C1112.18 179.785 1109.59 208.808 1109.59 216.778L1110.12 283.284C1110.4 322.013 1115.54 379.636 1079.97 404.891C1050.4 426.026 1010.44 424.463 978.758 409.107C975.289 407.426 972.31 403.392 974.856 399.638C975.948 399.16 978.056 398.362 979.191 398.751C993.273 403.576 1003.64 408.581 1018.59 410.8C1084 417.882 1104.3 365.971 1097.78 310.542C1095.73 313.664 1093.06 318.073 1090.71 320.845C1066.11 349.976 1020.15 355.943 990.008 331.953C949.25 299.91 947.389 235.299 978.133 195.884C992.237 177.8 1009.93 170.944 1031.98 168.399ZM1039.54 336.691C1058.61 334.805 1070.58 328.433 1083.31 313.604C1100.38 293.703 1096.4 276.501 1098.4 253.951C1102.36 209.485 1077.38 172.863 1027.82 178.388C940.106 199.804 956.047 340.481 1039.54 336.691Z"/><path fill="#484847" transform="scale(0.829102 0.8297)" d="M362.976 168.404C424.664 166.802 450.952 215.995 445.289 272.488C440.316 328.705 389.599 363.767 335.933 343.832C320.402 338.063 312.033 328.331 301.977 315.95C301.709 325.283 301.859 335.401 301.816 344.8C301.836 356.003 302.886 408.194 301.109 415.554C298.591 417.448 293.316 417.303 290.755 415.492C289.833 412.629 290.617 364.657 290.47 358.558C289.259 308.278 290.03 257.772 290.209 207.471C290.239 199.145 287.251 175.771 293.223 171.954C296.376 171.912 296.75 171.979 299.234 173.903C303.527 180.393 302.014 197.167 302.043 205.873C318.936 182.866 333.788 171.973 362.976 168.404ZM376.561 339.278C394.862 335.391 408.882 327.814 419.405 311.761C450.556 264.238 432.3 170.859 361.629 178.367C328.163 183.254 303.697 209.018 302.079 244.146C301.43 258.227 301.446 273.157 302.936 287.225C309.637 324.554 341.511 341.982 376.561 339.278Z"/><path fill="#45BDCF" transform="scale(0.829102 0.8297)" d="M624.323 166.692L691.657 166.821C699.098 174.36 712.521 189.296 719.954 195.356C713.861 203.032 691.577 222.14 690.592 228.995C692.162 235.607 690.973 275.547 691.35 286.444C669.495 286.597 646.789 287.301 624.993 285.983C623.17 285.872 621.125 283.739 619.934 282.449C618.939 279.776 600.127 261.235 596.699 257.773C605.23 249.045 616.045 238.523 623.852 229.424C624.816 210.09 624.274 186.426 624.323 166.692Z"/><path fill="#03A5DE" transform="scale(0.829102 0.8297)" d="M624.82 229.002C643.543 229.357 671.862 230.021 690.026 228.88L690.592 228.995C692.162 235.607 690.973 275.547 691.35 286.444C669.495 286.597 646.789 287.301 624.993 285.983C623.17 285.872 621.125 283.739 619.934 282.449C618.939 279.776 600.127 261.235 596.699 257.773C605.23 249.045 616.045 238.523 623.852 229.424L624.82 229.002Z"/><path fill="#F3FEFE" transform="scale(0.829102 0.8297)" d="M624.82 229.002L625.487 225.755C629.042 223.825 684.301 223.576 689.684 225.019L690.026 228.88C671.862 230.021 643.543 229.357 624.82 229.002Z"/><path fill="#484847" transform="scale(0.829102 0.8297)" d="M1450.7 171.992C1457.77 171.711 1462 170.496 1461.86 178.316C1461.42 201.782 1461.72 225.282 1461.72 248.752C1461.71 273.7 1459.39 299.093 1474.58 320.7C1495.77 352.83 1545.65 340.314 1563.35 310.622C1579.87 282.926 1567.98 231.414 1571.32 198.986C1572.17 190.697 1570.37 181.406 1572.43 173.144C1574.96 171.391 1581.48 172.181 1583.91 173.937C1584.97 178.611 1584.25 207.035 1584.19 214.044L1584.07 283.023C1583.97 303.375 1582.78 325.482 1586.31 345.368C1582.96 345.803 1576.41 345.779 1572.82 345.854C1572.47 335.829 1572.5 326.164 1572.54 316.133C1548.02 352.719 1492.04 364.358 1464.3 326.4C1444.89 299.847 1451.62 254.905 1450.38 223.375C1449.94 212.218 1449 181.991 1450.7 171.992Z"/><path fill="#484847" transform="scale(0.829102 0.8297)" d="M1703.54 168.341C1733.9 166.122 1760.59 186.02 1766.65 215.874C1770.8 236.302 1769.8 255.946 1769.81 276.661L1769.81 345.408C1766.13 345.587 1761.56 345.51 1757.81 345.54L1758.22 272.032C1758.28 239.421 1761.67 191.524 1720.46 179.911C1706.58 176.001 1691.83 179.191 1679.02 185.401C1667.33 191.953 1651.42 207.759 1649.21 221.49C1643.59 256.309 1648.71 295.572 1646.18 331.185C1645.83 336.068 1646.39 339.599 1645.67 344.466C1643.31 346.454 1637.79 345.755 1634.94 344.985C1632.73 341.771 1635.69 213.771 1633.89 198.508C1633.36 194.055 1632.6 175.256 1636.86 172.184C1639.67 172.009 1642.43 171.462 1644.59 173.144C1646.23 175.8 1645.76 198.95 1645.78 203.818C1659.84 181.215 1677.55 171.501 1703.54 168.341Z"/><path fill="#484847" transform="scale(0.829102 0.8297)" d="M854.712 168.437C947.015 169.393 914.033 275.021 920.936 335.673C921.236 338.314 920.884 342.628 920.024 345.179C916.766 346.129 908.819 346.966 908.916 342.086C909.667 309.265 909.513 276.593 909.104 243.724C908.783 217.82 901.923 190.554 874.71 181.104C858.4 175.44 842.889 178.85 827.751 186.141C814.522 193.824 805.357 205.72 799.777 219.743C793.839 234.663 800.903 339.843 795.848 344.66C791.878 345.396 790.904 345.27 786.85 344.839L785.855 343.504C784.111 292.986 786.586 241.934 785.102 191.397C784.866 183.346 780.992 177.011 788.815 171.974C792.492 171.717 791.208 171.373 794.262 173.024C797.528 177.894 796.714 197.023 796.739 203.886C811.475 181.134 827.986 171.341 854.712 168.437Z"/><path fill="#484847" transform="scale(0.829102 0.8297)" d="M1878.12 169.421C1904.59 166.823 1926.33 171.205 1941.77 195.018C1951.31 209.732 1952.58 223.632 1952.55 240.7C1952.51 266.814 1951.99 293.042 1952.51 319.16C1952.67 327.36 1953.34 335.707 1952.62 343.876C1948.05 348.221 1940.77 345.357 1940.91 340.338C1941.62 313.813 1941.62 287.858 1941.48 261.267C1941.32 231.531 1942.99 195.894 1910.38 182.021C1895.75 175.794 1880.71 177.309 1866.31 183.235C1825.83 202.15 1830.01 232.543 1830.26 269.193L1830.16 325.859C1830.18 330.924 1831.05 341.433 1828.27 345.065C1824.36 345.893 1823.47 345.726 1819.53 344.966C1814.79 338.212 1820.54 200.6 1816.94 180.264C1816.63 178.506 1816.46 175.025 1816.62 173.146C1819.67 171.793 1824.5 172.433 1827.99 172.609C1828.52 183.973 1828.53 193.406 1828.29 204.793C1842.97 184.644 1853.2 174.802 1878.12 169.421Z"/><path fill="#484847" transform="scale(0.829102 0.8297)" d="M624.393 290.861C635.314 290.96 688.513 289.22 694.423 292.946C701.176 301.999 712.302 311.307 719.358 320.141C709.93 329.408 700.888 339.711 691.659 348.558C682.677 348.632 628.701 349.783 624.123 347.924C624.721 329.54 624.377 309.383 624.393 290.861Z"/><path fill="#484847" transform="scale(0.829102 0.8297)" d="M208.773 168.4C227.363 168.429 235.852 171.479 251.39 180.571C248.988 183.199 246.487 186.271 244.157 189.006C223.93 177.154 201.318 171.372 181.508 189.325C175.419 194.843 172.52 203.568 172.929 211.831C175.114 248.154 222.377 246.774 243.187 269.119C260.395 287.597 260.502 315.535 241.888 333.106C227.345 346.834 212.993 349.078 193.711 348.928C179.92 348.571 166.169 343.555 154.351 336.706L159.987 326.527C186.232 341.761 213.176 347.777 237.106 322.647C242.761 316.707 244.005 305.512 243.05 297.448C239.122 264.285 197.337 262.892 176.525 244.662C157.982 229.084 154.527 205.245 170.276 186.222C180.906 173.38 192.513 170.076 208.773 168.4Z"/><path fill="#484847" fill-opacity="0.97254902" transform="scale(0.829102 0.8297)" d="M1668.33 508.289C1700.03 505.529 1711.65 522.598 1712.51 552.825C1690.5 553.673 1665.11 553.046 1642.84 553.001C1644.06 579.172 1650.85 593.848 1677.93 597.001C1686.68 596.695 1701.98 592.467 1705.44 593.088L1705.69 595.599C1699.66 605.02 1666.93 603.493 1656.85 597.045C1624.11 576.098 1628.7 519.669 1668.33 508.289ZM1643.53 547.477L1678.77 547.434L1705.13 547.349C1701.74 525.734 1696.06 511.651 1670.99 513.241C1652.69 518.643 1647.5 529.56 1643.53 547.477Z"/><path fill="#484847" transform="scale(0.829102 0.8297)" d="M536.063 169.325C541.723 168.767 549.26 167.509 553.716 171.286L553.999 175.277C550.181 181.995 535.599 178.597 528.332 182.84C494.658 202.499 497.006 240.183 496.933 273.819L496.858 320.249C496.848 325.232 497.159 340.953 495.696 344.785C490.901 347.189 490.149 346.928 485.793 344.38C483.494 340.373 484.256 339.014 484.211 333.98C484.091 282.608 485.299 231.376 483.594 180.006C483.516 177.684 483.776 174.358 485.493 172.675C489.022 171.93 489.984 171.586 493.383 172.599C495.953 176.195 495.84 199.001 496.101 205.314C504.628 186.01 515.937 175.785 536.063 169.325Z"/><path fill="#484847" transform="scale(0.829102 0.8297)" d="M1405.79 169.489C1411.1 168.958 1424.98 167.096 1424.93 175.67C1420.75 181.139 1408.73 178.722 1402.21 181.487C1351.47 203.014 1368.18 276.798 1365.16 321.066C1364.59 329.53 1369.47 344.642 1359.57 347.391C1352.46 345.851 1353.72 335.691 1353.9 330.5C1354 315.455 1352.74 173.538 1352.9 173.115C1368.04 165.196 1363.69 199.289 1363.47 207.36L1363.71 206.946C1374.96 187.349 1383.64 175.595 1405.79 169.489Z"/><path fill="#484847" fill-opacity="0.94509804" transform="scale(0.829102 0.8297)" d="M1424.22 464.378C1431 464.238 1442.52 465.786 1447.34 470.755L1446.87 472.42C1444.04 474.092 1442.37 474.796 1439.23 473.573C1407.4 461.173 1401.56 482.399 1400.2 509.995L1452.45 510.133C1452.98 520.713 1455.26 595.569 1452.13 600.294C1449.67 601.034 1449.3 601.177 1446.84 600.212C1444.88 597.529 1445.29 543.03 1445.15 534.25L1444.74 515.905L1400.43 515.839C1400.57 527.136 1402.02 596.461 1399.54 600.361L1396.47 600.72L1394.9 599.218C1392.68 591.599 1393.95 526.318 1393.92 516.033C1389.1 516.141 1383.96 517.132 1380.88 512.943L1381.93 511.303C1385.27 509.257 1389.72 509.798 1393.74 509.848C1394.42 485.948 1397.57 468.36 1424.22 464.378Z"/><path fill="#484847" fill-opacity="0.93333334" transform="scale(0.829102 0.8297)" d="M1575.19 508.304C1599.38 506.226 1612.11 521.583 1613.29 545.015C1613.66 552.477 1614.12 595.933 1612.21 599.704C1608.65 600.663 1609.73 600.923 1606.73 599.658C1604.9 596.524 1605.96 592.428 1605.78 588.909C1604.26 559.746 1617.24 504.197 1568.93 514.949C1549.08 524.696 1549.35 538.694 1549.53 558.335L1549.87 586.13C1549.95 591.127 1550.76 596.177 1548.08 600.027C1544.56 600.229 1545.42 600.716 1543.07 598.936C1542.11 590.639 1541.16 512.933 1542.49 510.746C1546.01 510.471 1544.92 510.051 1547.54 511.847C1548.92 515.142 1547.82 521.488 1547.43 525.37C1555.89 515.214 1562.65 511.551 1575.19 508.304Z"/><path fill="#45BDCF" fill-opacity="0.95294118" transform="scale(0.829102 0.8297)" d="M1942.36 457.542C1944.91 458.044 1945.92 458.063 1947.92 459.738C1949.05 463.345 1916.38 642.902 1913.68 648.187L1908.99 646.941L1908.1 645.099C1913.42 623.629 1915.28 602.264 1919.12 580.554C1924.16 552.045 1930.47 523.857 1935.76 495.378C1937.45 486.249 1938.82 464.488 1942.36 457.542Z"/><path fill="#03A5DE" fill-opacity="0.95686275" transform="scale(0.829102 0.8297)" d="M1335.28 458.762C1339.21 459.361 1339.09 458.723 1341.67 460.951C1341.67 460.913 1310.41 642.715 1308.48 648.185C1305.98 647.893 1304.87 647.965 1302.89 646.418C1303.14 638.475 1310.11 601.015 1311.74 591.42L1335.28 458.762Z"/><path fill="#484847" fill-opacity="0.97254902" transform="scale(0.829102 0.8297)" d="M1823.03 508.392C1831.32 507.576 1842.52 508.551 1848.69 514.765L1848.34 516.287C1838.01 520.42 1828.21 507.924 1817.39 516.274C1791.52 536.246 1824.09 547.226 1839.3 556.345C1851.88 563.886 1855.56 578.558 1847.69 591.111C1843.19 598.298 1834.1 600.556 1826.31 601.942C1820.75 602.015 1800.38 601.035 1799.48 594.495C1800.08 593.861 1800.79 593.117 1801.6 592.265C1812.84 592.823 1818.26 599.834 1831.19 595.252C1837.14 593.145 1841.28 588.672 1843.4 583.895C1854.64 557.388 1806.91 557.209 1802.1 536.648C1798.47 521.16 1810.25 512.178 1823.03 508.392Z"/><path fill="#484847" fill-opacity="0.95686275" transform="scale(0.829102 0.8297)" d="M1491.29 491.308L1493.37 492.725C1494.64 497.285 1494.29 505.086 1494.28 510.082C1502.88 509.711 1511.84 508.549 1519.77 511.888L1520.2 513.291C1515.38 517.37 1500.9 516.128 1494.46 515.949C1495.01 537.74 1492.87 560.466 1495.05 582.088C1496.74 598.754 1506.5 597.459 1518.95 595.037C1520.62 597.072 1520.83 597.767 1520.23 600.073C1511.19 607.2 1489.16 600.375 1487.91 585.663C1485.94 562.521 1487.52 539.288 1487.04 515.958C1481.75 516.109 1474.79 517.427 1471.32 513.026L1472.66 511.344C1476.77 509.17 1482.42 509.712 1487.24 509.746C1487.26 502.533 1485.44 495.761 1491.29 491.308Z"/><path fill="#484847" fill-opacity="0.96470588" transform="scale(0.829102 0.8297)" d="M1766.33 554.502C1790.69 567.549 1785.39 594.814 1760.22 601.536C1752.27 603.66 1737.26 601.872 1730.93 596.338C1729.85 593.315 1729.8 594.539 1731.03 591.751C1738.69 593.323 1746.24 596.267 1754.03 596.549C1764.97 596.882 1777.38 585.968 1774.58 573.964C1767.65 549.689 1717.95 554.439 1734.71 520.302C1742.35 504.743 1775.77 505.15 1777.75 515.44L1776.34 517.08C1770.92 517.907 1764.52 512.393 1759.05 512.851C1739.05 514.526 1731.79 532.697 1747.9 545.811C1753.04 549.218 1760.52 552.061 1766.33 554.502Z"/><path fill="#F3FEFE" fill-opacity="0.015686275" transform="scale(0.829102 0.8297)" d="M719.954 195.356C731.624 208.449 695.484 230.559 695.618 233.838C695.904 240.873 693.42 289.919 694.423 292.946C688.513 289.22 635.314 290.96 624.393 290.861C624.377 309.383 624.721 329.54 624.123 347.924C623.878 347.818 623.558 347.695 623.32 347.551C618.734 344.77 623.493 295.806 621.067 287.191C620.627 285.628 620.301 284.032 619.934 282.449C621.125 283.739 623.17 285.872 624.993 285.983C646.789 287.301 669.495 286.597 691.35 286.444C690.973 275.547 692.162 235.607 690.592 228.995C691.577 222.14 713.861 203.032 719.954 195.356Z"/><path fill="#F3FEFE" fill-opacity="0.015686275" transform="scale(0.829102 0.8297)" d="M1747.9 545.811C1755.75 545.28 1764.76 544.855 1766.33 554.502C1760.52 552.061 1753.04 549.218 1747.9 545.811Z"/></svg>